<svg width="24" height="24" viewBox="0 0 24 24" fill="none" xmlns="http://www.w3.org/2000/svg">
<g clip-path="url(#clip0_14_13)">
<path d="M15.6 16.8C14.7 16.8 14.7094 16.8 13.8 16.8C13.2 16.8 12.7092 16.8 12 16.8C11.2909 16.8 10.8 16.8 10.2 16.8C9.60001 16.8 9.00001 16.8 8.40001 16.8M22.8 12C22.8 13.4183 22.5207 14.8227 21.9779 16.133C21.4352 17.4433 20.6396 18.6339 19.6368 19.6368C18.6339 20.6396 17.4433 21.4352 16.133 21.9779C14.8227 22.5207 13.4183 22.8 12 22.8C10.5817 22.8 9.17735 22.5207 7.86703 21.9779C6.55671 21.4352 5.36613 20.6396 4.36326 19.6368C3.36039 18.6339 2.56486 17.4433 2.02211 16.133C1.47936 14.8227 1.20001 13.4183 1.20001 12C1.20001 9.13567 2.33787 6.38865 4.36326 4.36326C6.38865 2.33787 9.13567 1.20001 12 1.20001C14.8644 1.20001 17.6114 2.33787 19.6368 4.36326C21.6622 6.38865 22.8 9.13567 22.8 12ZM9.30001 9.30001C9.30001 9.79681 9.09841 10.2 8.85001 10.2C8.60161 10.2 8.40001 9.79681 8.40001 9.30001C8.40001 8.80321 8.60161 8.40001 8.85001 8.40001C9.09841 8.40001 9.30001 8.80321 9.30001 9.30001ZM8.85001 9.30001H8.85961V9.31801H8.85001V9.30001ZM15.6 9.30001C15.6 9.79681 15.3984 10.2 15.15 10.2C14.9016 10.2 14.7 9.79681 14.7 9.30001C14.7 8.80321 14.9016 8.40001 15.15 8.40001C15.3984 8.40001 15.6 8.80321 15.6 9.30001ZM15.15 9.30001H15.1596V9.31801H15.15V9.30001Z" stroke="#FFA01C" stroke-width="1.5" stroke-linecap="round" stroke-linejoin="round"/>
</g>
<defs>
<clipPath id="clip0_14_13">
<rect width="24" height="24" fill="white"/>
</clipPath>
</defs>
</svg>
